<?xml version="1.0" encoding="utf-8"?>
<!-- Generator: Adobe Illustrator 26.5.0, SVG Export Plug-In . SVG Version: 6.00 Build 0)  -->
<svg version="1.1" id="Layer_1" xmlns="http://www.w3.org/2000/svg" xmlns:xlink="http://www.w3.org/1999/xlink" x="0px" y="0px"
	 viewBox="0 0 174.3 174.3" style="enable-background:new 0 0 174.3 174.3;" xml:space="preserve">
<style type="text/css">
	.st0{fill:#FFFFFF;}
</style>
<g>
	<path class="st0" d="M54.7,127.9c0.5,7.9,6,10.5,9.2,10.9c5.5,0.6,9.6-1.7,12.7-7.3c3.1-5.7,5.8-14.7,7.4-25.4
		C57.7,111.6,54.1,119.7,54.7,127.9z"/>
	<path class="st0" d="M87.3,2.8C40.8,2.8,3,40.6,3,87.2c0,46.6,37.8,84.3,84.3,84.3c46.6,0,84.3-37.8,84.3-84.3
		C171.7,40.6,133.9,2.8,87.3,2.8z M89.3,104.9c-1.1,8.3-3.5,20.5-8.2,29c-3.7,6.8-9,10.2-15.6,10.2c-0.7,0-1.5,0-2.2-0.1
		c-4.8-0.5-13.1-4.4-13.9-15.8c-0.5-8.2,2.9-14.5,10.5-19.3c5.6-3.5,13.7-6.3,24.7-8.5c1-8.9,1.7-17.5,2.5-27.5
		c0.1-1.6,0.3-3.3,0.4-5c0.5-6.2,1.3-12.6,2.3-18.7c-2.4-0.8-4.2-1.9-4.6-2.1l2.8-4.5c0,0,1.2,0.7,2.8,1.3c0.7-3.7,1.5-7.2,2.4-10.6
		c1.3-5.1,3.6-7.7,6.6-7.6c3.2,0.1,5.6,3.5,6.1,5.9c0.4,2.1,1.4,7.1-3.1,14.6c-1.2,1.9-3,3.2-5.2,3.8c-0.9,0.2-1.7,0.3-2.6,0.3
		c-1,5.9-1.8,12.1-2.2,18.1c-0.1,1.7-0.3,3.4-0.4,5C91.6,82.8,90.9,91,90,99.4c2.6-0.4,5.4-0.9,8.4-1.3l0.7,5.2
		C95.6,103.9,92.3,104.4,89.3,104.9z M111.2,90.3c0-1-0.2-3.4-0.9-5.6c-0.4,1.6-1,3.9-1.5,7.2c-0.3,2-1.7,2.5-2.7,2.5
		c-0.1,0-0.2,0-0.3,0c-0.3,0-2.6-0.5-2.2-3.3l0.1-0.4c0.1-1.1,0.3-2.2,0.5-3.3c0.6-3,0.8-4.7,0.3-6c-1.1,2.1-2.4,6.7-3.2,11.3
		l-5.2-0.9c0-0.1,0.6-3.4,1.6-6.9c1.6-5.7,3.2-8.5,5.4-9.3c1.3-0.5,2.7-0.3,3.9,0.7c0.5,0.4,1,0.9,1.4,1.4c0.3-0.2,0.7-0.3,1-0.4
		c1.4-0.3,2.7,0.2,3.7,1.4c3.4,4.4,3.5,11,3.5,11.8H111.2z"/>
	<path class="st0" d="M98.2,43.5c3.5-5.6,2.8-9,2.5-10.8c-0.1-0.4-0.6-1.2-1-1.5c-0.3,0.3-0.9,1.3-1.5,3.5
		c-0.9,3.2-1.6,6.7-2.3,10.2C96.9,44.8,97.7,44.4,98.2,43.5z"/>
</g>
</svg>
